<svg xmlns="http://www.w3.org/2000/svg" viewBox="0 0 24 24" fill="none" stroke="#007BFF" stroke-width="2" stroke-linecap="round" stroke-linejoin="round">
  <circle cx="12" cy="12" r="3"/>
  <path d="M19.4 12a7.38 7.38 0 0 0-.1-1l2.1-1.6a.5.5 0 0 0 .1-.6l-2-3.4a.5.5 0 0 0-.6-.2l-2.5 1a7.36 7.36 0 0 0-1.7-1L14 2.5a.5.5 0 0 0-.5-.5h-3a.5.5 0 0 0-.5.5l-.3 2.7a7.36 7.36 0 0 0-1.7 1l-2.5-1a.5.5 0 0 0-.6.2l-2 3.4a.5.5 0 0 0 .1.6L4.7 11a7.38 7.38 0 0 0-.1 1 7.38 7.38 0 0 0 .1 1l-2.1 1.6a.5.5 0 0 0-.1.6l2 3.4a.5.5 0 0 0 .6.2l2.5-1a7.36 7.36 0 0 0 1.7 1L10 21.5a.5.5 0 0 0 .5.5h3a.5.5 0 0 0 .5-.5l.3-2.7a7.36 7.36 0 0 0 1.7-1l2.5 1a.5.5 0 0 0 .6-.2l2-3.4a.5.5 0 0 0-.1-.6l-2.1-1.6a7.38 7.38 0 0 0 .1-1z"/>
</svg>
